<svg width="13" height="21" fill="none" xmlns="http://www.w3.org/2000/svg"><path d="M7.261 8.55a1.931 1.931 0 0 1-1.534-.06L4.109 20H8.89L7.26 8.55z" stroke="#1380CE" stroke-miterlimit="10"/><path d="M2.94 11.667l.413-1.075c-1.346-.958-2.22-2.495-2.22-4.239 0-2.888 2.41-5.244 5.361-5.244 2.952 0 5.36 2.356 5.36 5.244 0 1.744-.873 3.28-2.207 4.24l.413 1.074C11.83 10.535 13 8.57 13 6.353 13 2.853 10.084 0 6.506 0 2.916 0 0 2.853 0 6.353c0 2.218 1.169 4.17 2.94 5.314z" fill="#1380CE"/><path d="M3.912 9.167l.43-1.136a2.647 2.647 0 0 1-.628-1.715c0-1.5 1.254-2.726 2.786-2.726s2.786 1.227 2.786 2.726c0 .647-.232 1.25-.627 1.715l.43 1.136c.8-.704 1.311-1.715 1.311-2.851C10.4 4.215 8.647 2.5 6.5 2.5c-2.147 0-3.9 1.715-3.9 3.816a3.76 3.76 0 0 0 1.312 2.85z" fill="#1380CE"/></svg>