<svg width="13" height="21" viewBox="0 0 13 21" fill="none" xmlns="http://www.w3.org/2000/svg">
<path d="M7.26147 8.54956C7.04894 8.63211 6.81279 8.67928 6.56483 8.67928C6.26965 8.67928 5.98627 8.60853 5.72651 8.4906L4.10889 20H8.8909L7.26147 8.54956Z" stroke="#1380CE" stroke-miterlimit="10"/>
<path d="M2.94005 11.6667L3.35332 10.5924C2.00727 9.63366 1.13352 8.09736 1.13352 6.35314C1.13352 3.46535 3.54223 1.10891 6.4941 1.10891C9.44596 1.10891 11.8547 3.46535 11.8547 6.35314C11.8547 8.09736 10.9809 9.63366 9.64668 10.5924L10.0599 11.6667C11.8311 10.5347 13 8.57096 13 6.35314C13 2.85314 10.0836 0 6.5059 0C2.91644 0 0 2.85314 0 6.35314C0 8.57096 1.16894 10.5231 2.94005 11.6667Z" fill="#1380CE"/>
<path d="M3.91171 9.16667L4.34117 8.03095C3.94653 7.5653 3.71438 6.96337 3.71438 6.31601C3.71438 4.81687 4.96795 3.59029 6.5001 3.59029C8.03224 3.59029 9.28581 4.81687 9.28581 6.31601C9.28581 6.96337 9.05367 7.5653 8.65903 8.03095L9.08849 9.16667C9.88938 8.46252 10.4001 7.45173 10.4001 6.31601C10.4001 4.21493 8.64742 2.5 6.5001 2.5C4.35278 2.5 2.6001 4.21493 2.6001 6.31601C2.6001 7.45173 3.11081 8.47388 3.91171 9.16667Z" fill="#1380CE"/>
</svg>
